<?xml version="1.0" standalone="no"?>
<!DOCTYPE svg PUBLIC "-//W3C//DTD SVG 20010904//EN"
 "http://www.w3.org/TR/2001/REC-SVG-20010904/DTD/svg10.dtd">
<svg version="1.0" xmlns="http://www.w3.org/2000/svg"
 width="820.000000pt" height="820.000000pt" viewBox="0 0 820.000000 820.000000"
 preserveAspectRatio="xMidYMid meet">
<metadata>
Created by potrace 1.11, written by Peter Selinger 2001-2013
</metadata>
<g transform="translate(0.000000,820.000000) scale(0.100000,-0.100000)"
fill="#000000" stroke="none">
<path d="M0 4100 l0 -4100 739 0 739 0 108 73 c270 183 594 341 916 446 50 17
67 27 71 44 3 12 6 357 6 767 1 786 15 1561 32 1795 5 77 14 208 19 290 33
504 98 874 212 1205 50 143 86 214 164 317 100 131 140 147 285 112 274 -67
587 -209 1189 -539 488 -268 520 -285 657 -348 239 -112 371 -159 534 -192 55
-11 103 -20 105 -20 2 0 4 -11 4 -24 0 -27 -17 -36 -73 -38 -20 -1 -34 -5 -31
-10 3 -4 -3 -8 -14 -8 -34 0 -166 -50 -207 -78 -88 -61 -125 -64 -455 -30
-160 16 -284 22 -485 22 -249 1 -276 -1 -342 -21 -145 -43 -258 -114 -314
-196 -22 -32 -22 -32 17 5 176 167 519 183 819 39 44 -21 99 -52 123 -68 63
-43 141 -122 163 -165 l19 -38 61 31 c52 26 60 27 55 12 -37 -126 -41 -154
-41 -298 0 -129 3 -160 24 -225 27 -87 75 -187 125 -261 42 -60 162 -170 226
-207 25 -14 52 -31 61 -38 19 -17 120 -50 195 -63 32 -6 62 -15 66 -19 6 -6
-36 -367 -57 -488 l-5 -31 -145 4 -145 3 0 -68 c0 -63 -11 -265 -14 -269 -1
-1 -322 -27 -471 -37 l-70 -5 3 186 c4 216 -11 271 -21 76 -4 -70 -7 -158 -7
-194 l0 -66 -167 -6 c-91 -4 -220 -7 -286 -7 l-120 0 5 210 c4 171 2 210 -9
210 -10 0 -13 -19 -13 -73 0 -41 -3 -136 -7 -211 l-6 -138 -281 7 c-155 4
-281 8 -282 9 -1 2 15 233 21 299 5 54 3 67 -8 67 -11 0 -16 -36 -26 -168 -6
-92 -11 -176 -11 -186 0 -18 -9 -19 -219 -14 -172 4 -221 3 -225 -7 -3 -10 43
-14 214 -16 120 -2 220 -6 223 -9 4 -5 -12 -413 -16 -416 -1 -1 -65 3 -142 8
-195 14 -257 15 -261 3 -2 -5 6 -10 19 -11 12 0 105 -7 206 -14 l183 -14 -3
-144 c-3 -110 -1 -146 9 -149 9 -4 12 25 12 124 0 70 3 137 6 148 5 19 12 20
152 18 81 -2 207 -6 280 -9 l134 -6 -4 -179 c-2 -128 0 -179 8 -179 8 0 14 58
19 180 l7 180 284 0 284 0 0 -170 c0 -93 4 -170 8 -170 9 0 22 171 22 283 l0
59 148 -4 c147 -4 147 -4 225 -42 42 -21 79 -42 82 -46 2 -4 7 -44 11 -89 l7
-81 33 6 34 6 0 -155 0 -155 173 -70 c217 -89 368 -157 477 -216 l85 -46 1038
0 1037 0 0 4100 0 4100 -4100 0 -4100 0 0 -4100z m5968 -256 c144 -30 292
-117 387 -229 56 -65 127 -194 163 -295 24 -69 26 -88 26 -230 0 -150 -1 -158
-33 -253 -31 -90 -48 -123 -119 -230 -35 -53 -148 -155 -215 -195 -99 -60
-188 -85 -317 -90 -138 -5 -232 12 -335 61 -343 164 -510 570 -391 947 46 144
108 243 215 342 95 88 241 161 361 181 60 10 187 6 258 -9z m952 -681 c46 -41
55 -96 27 -153 -29 -60 -57 -66 -57 -13 0 56 -10 84 -28 81 -13 -2 -15 -15
-13 -61 3 -66 -9 -73 -62 -33 -18 14 -44 28 -59 31 -25 6 -28 12 -28 49 0 38
3 43 33 54 19 7 51 25 73 42 49 37 75 37 114 3z m-252 -104 c2 -51 1 -55 -31
-76 -40 -27 -72 -31 -63 -7 3 9 6 49 6 89 l0 73 43 -13 42 -12 3 -54z m-1835
-1916 c-3 -120 -8 -220 -12 -223 -3 -3 -134 -4 -290 -2 l-284 4 7 96 c3 54 6
150 6 214 l0 118 268 3 c147 1 277 3 289 5 l22 2 -6 -217z m-596 110 c-4 -54
-7 -151 -7 -215 l0 -118 -112 0 c-62 0 -191 3 -285 7 l-173 6 0 111 c0 61 3
155 7 209 l6 97 285 0 285 0 -6 -97z m630 30 c-2 -16 -4 -5 -4 22 0 28 2 40 4
28 2 -13 2 -35 0 -50z m1369 -151 c32 -16 93 -44 134 -62 85 -37 133 -83 148
-139 21 -87 -24 -204 -114 -292 -38 -37 -46 -40 -107 -44 -52 -3 -70 -1 -82
12 -11 10 -19 13 -23 6 -8 -12 -107 19 -205 65 -75 35 -83 54 -67 160 14 87
49 157 107 214 55 54 123 106 139 107 6 1 37 -12 70 -27z"/>
<path d="M5832 3310 c-24 -4 -48 -13 -53 -21 -5 -8 -9 -48 -9 -90 0 -106 6
-110 159 -117 135 -5 133 -6 146 80 9 60 -7 109 -43 130 -32 18 -138 28 -200
18z"/>
<path d="M6400 883 c-18 -20 -39 -51 -46 -69 -15 -36 -19 -124 -6 -124 30 0
102 146 102 205 0 34 -12 31 -50 -12z"/>
<path d="M6501 894 c0 -11 3 -14 6 -6 3 7 2 16 -1 19 -3 4 -6 -2 -5 -13z"/>
<path d="M6181 754 c0 -11 3 -14 6 -6 3 7 2 16 -1 19 -3 4 -6 -2 -5 -13z"/>
<path d="M4169 3374 c-15 -18 -25 -148 -15 -189 8 -31 28 -42 107 -55 142 -23
166 -24 177 -3 15 28 18 208 4 226 -14 16 -127 37 -205 37 -38 0 -59 -5 -68
-16z"/>
<path d="M4808 2625 l-78 -75 131 0 130 0 -51 75 c-28 41 -52 75 -53 75 -1 0
-37 -34 -79 -75z"/>
<path d="M2550 510 c-8 -5 -10 -10 -5 -10 6 0 17 5 25 10 8 5 11 10 5 10 -5 0
-17 -5 -25 -10z"/>
</g>
</svg>
